<?xml version="1.0" encoding="UTF-8"?>
<svg id="Layer_2" data-name="Layer 2" xmlns="http://www.w3.org/2000/svg" viewBox="0 0 963.77 316.21">
  <defs>
    <style>
      .cls-1 {
        stroke: #f7aa52;
        stroke-width: 9.77px;
      }

      .cls-1, .cls-2 {
        fill: none;
        stroke-linecap: round;
        stroke-miterlimit: 10;
      }

      .cls-2 {
        stroke: #3b6b45;
        stroke-width: 18.19px;
      }

      .cls-3 {
        fill: #3b6b45;
      }

      .cls-4 {
        fill: #f7aa52;
      }
    </style>
  </defs>
  <g id="Layer_1-2" data-name="Layer 1">
    <g>
      <circle class="cls-3" cx="159.56" cy="158.62" r="31.65"/>
      <g>
        <polyline class="cls-2" points="135.11 9.1 150.07 51.08 163.1 50.6 176.13 9.58"/>
        <circle class="cls-4" cx="200.8" cy="30.09" r="12.9"/>
        <circle class="cls-4" cx="108.27" cy="30.09" r="12.9"/>
        <g>
          <polyline class="cls-2" points="237.19 29.83 221.53 71.56 231.8 79.6 268.22 56.67"/>
          <circle class="cls-4" cx="274.59" cy="88.9" r="12.9"/>
        </g>
        <g>
          <polyline class="cls-2" points="79.7 29.83 95.37 71.56 85.1 79.6 48.68 56.67"/>
          <circle class="cls-4" cx="42.3" cy="88.9" r="12.9"/>
        </g>
        <g>
          <polyline class="cls-2" points="14.8 109.88 54.06 131 51.61 143.8 9.1 150.5"/>
          <circle class="cls-4" cx="25.5" cy="178.97" r="12.9"/>
        </g>
        <polyline class="cls-2" points="121.18 304.83 122.8 260.29 110.51 255.92 83.24 289.23"/>
        <circle class="cls-4" cx="67.31" cy="259.37" r="12.9"/>
        <circle class="cls-4" cx="153.89" cy="295.25" r="12.9"/>
        <polyline class="cls-2" points="37.4 247.15 67.38 214.17 60.82 202.91 18.5 210.75"/>
        <g>
          <polyline class="cls-2" points="186.72 307.11 183.66 262.64 195.8 257.88 224.13 290.28"/>
          <circle class="cls-4" cx="239.47" cy="261.22" r="12.9"/>
        </g>
        <g>
          <polyline class="cls-2" points="275.49 253.18 246.28 219.51 253.1 208.4 295.23 217.22"/>
          <circle class="cls-4" cx="289.99" cy="184.78" r="12.9"/>
        </g>
        <polyline class="cls-2" points="310.02 153.58 265.66 149.24 262.97 136.48 299.61 113.9"/>
      </g>
      <g>
        <polyline class="cls-1" points="146.42 78.56 154.46 101.12 161.46 100.86 168.46 78.82"/>
        <polyline class="cls-1" points="201.27 89.7 192.85 112.12 198.37 116.44 217.94 104.12"/>
        <polyline class="cls-1" points="116.65 89.7 125.07 112.12 119.55 116.44 99.98 104.12"/>
        <polyline class="cls-1" points="81.78 132.71 102.87 144.06 101.56 150.94 78.72 154.54"/>
        <polyline class="cls-1" points="138.94 237.46 139.81 213.53 133.2 211.18 118.56 229.07"/>
        <polyline class="cls-1" points="93.92 206.47 110.03 188.75 106.51 182.7 83.77 186.91"/>
        <polyline class="cls-1" points="174.15 238.68 172.51 214.79 179.03 212.23 194.25 229.64"/>
        <polyline class="cls-1" points="221.84 209.71 206.15 191.62 209.82 185.65 232.45 190.38"/>
        <polyline class="cls-1" points="240.4 156.19 216.56 153.86 215.12 147.01 234.81 134.87"/>
      </g>
    </g>
    <g>
      <path class="cls-3" d="M396.69,138.37c-12.37,0-21.97-3.29-28.81-9.87-6.84-6.58-10.26-15.94-10.26-28.09s3.17-22.17,9.5-28.88c6.34-6.71,15.38-10.06,27.14-10.06s19.83,2.92,25.93,8.75,9.14,14.24,9.14,25.21v11.41h-45.82c.17,4.15,1.69,7.41,4.56,9.77,2.86,2.36,6.76,3.54,11.7,3.54,4.5,0,8.64-.43,12.42-1.28,3.78-.85,7.88-2.3,12.29-4.36v18.42c-4.02,2.05-8.17,3.47-12.46,4.26-4.28.79-9.4,1.18-15.34,1.18ZM395.18,78.91c-3.01,0-5.54.95-7.57,2.85-2.03,1.9-3.22,4.88-3.57,8.95h22.03c-.09-3.58-1.1-6.45-3.05-8.59-1.95-2.14-4.56-3.21-7.83-3.21Z"/>
      <path class="cls-3" d="M437.79,111.29v-20.45h37.04v20.45h-37.04Z"/>
      <path class="cls-3" d="M557.56,71.7c0,10.71-3.16,18.98-9.47,24.81-6.32,5.83-15.29,8.75-26.91,8.75h-7.28v31.79h-25.89V41.22h33.17c12.1,0,21.19,2.64,27.27,7.93,6.07,5.29,9.11,12.81,9.11,22.55ZM513.9,84.16h4.72c3.89,0,6.98-1.09,9.28-3.28,2.29-2.18,3.44-5.2,3.44-9.05,0-6.47-3.58-9.7-10.75-9.7h-6.69v22.03Z"/>
      <path class="cls-3" d="M611.31,80.94h41.36v51.66c-11.23,3.85-23.58,5.77-37.04,5.77-14.77,0-26.19-4.28-34.25-12.85-8.06-8.57-12.09-20.78-12.09-36.64s4.41-27.51,13.24-36.12c8.83-8.61,21.2-12.91,37.1-12.91,6.03,0,11.72.57,17.08,1.7,5.35,1.14,10.02,2.58,13.99,4.33l-8.19,20.32c-6.91-3.41-14.49-5.11-22.75-5.11-7.56,0-13.41,2.46-17.54,7.38-4.13,4.92-6.2,11.94-6.2,21.08s1.87,15.79,5.61,20.49c3.74,4.7,9.12,7.05,16.16,7.05,3.84,0,7.38-.37,10.62-1.12v-15.01h-17.11v-19.99Z"/>
      <path class="cls-3" d="M672.21,137.06V41.22h25.89v74.93h36.91v20.91h-62.8Z"/>
      <path class="cls-3" d="M831.82,41.22v57.69c0,12.54-3.55,22.25-10.65,29.14s-17.34,10.33-30.71,10.33-23.11-3.34-30.12-10.03-10.52-16.3-10.52-28.84v-58.28h26.02v56.24c0,6.77,1.27,11.69,3.8,14.75,2.53,3.06,6.27,4.59,11.21,4.59,5.29,0,9.12-1.52,11.5-4.56,2.38-3.04,3.57-8.01,3.57-14.91v-56.11h25.89Z"/>
      <path class="cls-3" d="M893.71,137.06l-19.6-69.03h-.59c.92,11.76,1.38,20.89,1.38,27.4v41.63h-22.94V41.22h34.48l19.99,68.04h.52l19.6-68.04h34.55v95.84h-23.8v-42.02c0-2.18.03-4.61.1-7.28.07-2.67.36-9.2.88-19.6h-.59l-19.34,68.9h-24.65Z"/>
    </g>
    <g>
      <path class="cls-3" d="M379.02,228.17c-3.68,0-6.55-1.13-8.61-3.4s-3.09-5.45-3.09-9.53.99-7.27,2.98-9.71c1.99-2.43,4.67-3.65,8.04-3.65,2.98,0,5.34,1.04,7.06,3.12s2.59,4.91,2.59,8.48v1.86h-18.25c.03,3.48.84,6.14,2.44,7.97,1.59,1.83,3.87,2.75,6.84,2.75,1.45,0,2.71-.1,3.81-.3,1.1-.2,2.48-.64,4.16-1.3v2.1c-1.43.62-2.75,1.04-3.96,1.27-1.21.23-2.55.34-4.01.34ZM378.34,203.93c-2.44,0-4.4.8-5.87,2.41s-2.34,3.93-2.59,6.96h15.66c0-2.94-.64-5.23-1.91-6.89-1.27-1.66-3.04-2.48-5.29-2.48Z"/>
      <path class="cls-3" d="M392.88,215.77v-1.91h11.07v1.91h-11.07Z"/>
      <path class="cls-3" d="M431.43,203.42c0,3.29-1.12,5.82-3.36,7.57-2.24,1.76-5.41,2.63-9.51,2.63h-5.27v14.08h-2.38v-34.07h8.34c8.11,0,12.17,3.26,12.17,9.79ZM413.3,211.58h4.68c3.84,0,6.61-.63,8.32-1.9,1.71-1.27,2.56-3.32,2.56-6.17,0-2.62-.81-4.57-2.42-5.84-1.62-1.27-4.12-1.9-7.5-1.9h-5.64v15.8Z"/>
      <path class="cls-3" d="M453.64,227.7l-.58-4.01h-.19c-1.27,1.63-2.58,2.79-3.93,3.46s-2.93,1.01-4.77,1.01c-2.49,0-4.42-.64-5.8-1.91-1.38-1.27-2.07-3.04-2.07-5.29,0-2.47,1.03-4.39,3.09-5.76,2.06-1.37,5.04-2.09,8.94-2.17l4.82-.14v-1.68c0-2.41-.49-4.23-1.47-5.45-.98-1.23-2.56-1.84-4.73-1.84-2.35,0-4.78.65-7.29,1.96l-.86-2c2.78-1.3,5.53-1.96,8.25-1.96s4.86.72,6.23,2.17,2.06,3.7,2.06,6.76v16.85h-1.7ZM444.32,226.07c2.7,0,4.84-.77,6.4-2.32s2.34-3.69,2.34-6.44v-2.49l-4.43.19c-3.56.17-6.09.73-7.61,1.67-1.51.94-2.27,2.4-2.27,4.39,0,1.58.49,2.82,1.46,3.69.97.88,2.34,1.32,4.11,1.32Z"/>
      <path class="cls-3" d="M473.52,201.88c1.07,0,2.22.11,3.45.33l-.44,2.21c-1.06-.26-2.15-.4-3.29-.4-2.16,0-3.93.92-5.31,2.75-1.38,1.83-2.07,4.15-2.07,6.95v13.98h-2.31v-25.33h1.96l.23,4.57h.16c1.04-1.87,2.15-3.17,3.33-3.93,1.18-.75,2.61-1.13,4.29-1.13Z"/>
      <path class="cls-3" d="M488.81,226.12c1.46,0,2.73-.12,3.82-.37v1.87c-1.12.37-2.41.56-3.87.56-2.24,0-3.89-.6-4.95-1.79s-1.6-3.08-1.6-5.64v-16.36h-3.75v-1.35l3.75-1.05,1.17-5.73h1.19v6.13h7.43v2h-7.43v16.03c0,1.94.34,3.38,1.03,4.31.68.93,1.76,1.4,3.22,1.4Z"/>
      <path class="cls-3" d="M497.78,195.33c0-1.49.49-2.24,1.47-2.24.48,0,.86.19,1.13.58.27.39.41.94.41,1.66s-.14,1.25-.41,1.65c-.27.4-.65.61-1.13.61-.98,0-1.47-.75-1.47-2.26ZM500.41,227.7h-2.31v-25.33h2.31v25.33Z"/>
      <path class="cls-3" d="M519.01,228.17c-3.62,0-6.46-1.14-8.51-3.43s-3.08-5.47-3.08-9.55,1.06-7.46,3.19-9.8c2.13-2.34,5.04-3.51,8.74-3.51,2.19,0,4.29.38,6.29,1.14l-.63,2.05c-2.19-.73-4.09-1.09-5.71-1.09-3.11,0-5.46.96-7.06,2.88s-2.4,4.68-2.4,8.29c0,3.42.8,6.09,2.4,8.03,1.6,1.93,3.84,2.9,6.71,2.9,2.3,0,4.44-.41,6.41-1.23v2.14c-1.62.79-3.74,1.19-6.36,1.19Z"/>
      <path class="cls-3" d="M531.24,195.33c0-1.49.49-2.24,1.47-2.24.48,0,.86.19,1.13.58.27.39.41.94.41,1.66s-.14,1.25-.41,1.65c-.27.4-.65.61-1.13.61-.98,0-1.47-.75-1.47-2.26ZM533.88,227.7h-2.31v-25.33h2.31v25.33Z"/>
      <path class="cls-3" d="M553.2,228.17c-3.9,0-6.74-1.46-8.53-4.38h-.16l.07,1.96c.06,1.15.09,2.41.09,3.78v9.65h-2.31v-36.8h1.96l.44,3.61h.14c1.74-2.73,4.52-4.1,8.34-4.1,3.42,0,6.02,1.12,7.82,3.37,1.79,2.25,2.69,5.51,2.69,9.8s-.94,7.39-2.83,9.68c-1.89,2.29-4.46,3.44-7.73,3.44ZM553.15,226.12c2.59,0,4.6-.96,6.02-2.89,1.42-1.93,2.13-4.62,2.13-8.09,0-7.44-2.69-11.16-8.06-11.16-2.95,0-5.12.81-6.5,2.44-1.38,1.62-2.07,4.27-2.07,7.94v.75c0,3.96.66,6.79,1.99,8.48s3.49,2.54,6.49,2.54Z"/>
      <path class="cls-3" d="M586.15,227.7l-.58-4.01h-.19c-1.27,1.63-2.58,2.79-3.93,3.46s-2.93,1.01-4.77,1.01c-2.49,0-4.42-.64-5.8-1.91-1.38-1.27-2.07-3.04-2.07-5.29,0-2.47,1.03-4.39,3.09-5.76,2.06-1.37,5.04-2.09,8.94-2.17l4.82-.14v-1.68c0-2.41-.49-4.23-1.47-5.45-.98-1.23-2.56-1.84-4.73-1.84-2.35,0-4.78.65-7.29,1.96l-.86-2c2.78-1.3,5.53-1.96,8.25-1.96s4.86.72,6.23,2.17,2.06,3.7,2.06,6.76v16.85h-1.7ZM576.83,226.07c2.7,0,4.84-.77,6.4-2.32s2.34-3.69,2.34-6.44v-2.49l-4.43.19c-3.56.17-6.09.73-7.61,1.67-1.51.94-2.27,2.4-2.27,4.39,0,1.58.49,2.82,1.46,3.69.97.88,2.34,1.32,4.11,1.32Z"/>
      <path class="cls-3" d="M602.74,226.12c1.46,0,2.73-.12,3.82-.37v1.87c-1.12.37-2.41.56-3.87.56-2.24,0-3.89-.6-4.95-1.79s-1.6-3.08-1.6-5.64v-16.36h-3.75v-1.35l3.75-1.05,1.17-5.73h1.19v6.13h7.43v2h-7.43v16.03c0,1.94.34,3.38,1.03,4.31.68.93,1.76,1.4,3.22,1.4Z"/>
      <path class="cls-3" d="M632.99,215c0,4.13-1,7.36-3.01,9.68-2,2.32-4.77,3.48-8.3,3.48-2.22,0-4.18-.54-5.87-1.61-1.69-1.07-2.99-2.61-3.89-4.62-.9-2-1.35-4.32-1.35-6.94,0-4.13,1-7.35,3.01-9.66,2-2.31,4.75-3.46,8.25-3.46s6.21,1.17,8.19,3.51c1.98,2.34,2.97,5.54,2.97,9.61ZM613,215c0,3.48.76,6.2,2.29,8.14,1.53,1.95,3.69,2.92,6.49,2.92s4.96-.97,6.49-2.92c1.53-1.95,2.29-4.66,2.29-8.14s-.77-6.21-2.32-8.13-3.72-2.89-6.51-2.89-4.95.96-6.47,2.88c-1.51,1.92-2.27,4.63-2.27,8.15Z"/>
      <path class="cls-3" d="M649.98,201.88c1.07,0,2.22.11,3.45.33l-.44,2.21c-1.06-.26-2.15-.4-3.29-.4-2.16,0-3.93.92-5.31,2.75-1.38,1.83-2.07,4.15-2.07,6.95v13.98h-2.31v-25.33h1.96l.23,4.57h.16c1.04-1.87,2.15-3.17,3.33-3.93,1.18-.75,2.61-1.13,4.29-1.13Z"/>
      <path class="cls-3" d="M654.34,202.37h2.38l5.36,14.22c1.63,4.37,2.67,7.31,3.1,8.83h.14c.65-2,1.72-5,3.19-8.97l5.36-14.08h2.38l-11.35,29.43c-.92,2.39-1.69,4.01-2.31,4.85s-1.35,1.47-2.18,1.89c-.83.42-1.84.63-3.02.63-.89,0-1.87-.16-2.96-.49v-2c.9.25,1.87.37,2.91.37.79,0,1.49-.19,2.1-.56.61-.37,1.15-.95,1.64-1.74s1.06-2.03,1.7-3.73,1.06-2.81,1.25-3.32l-9.7-25.33Z"/>
      <path class="cls-3" d="M706.87,210.53h12.56v15.54c-3.29,1.4-7,2.1-11.12,2.1-5.38,0-9.5-1.52-12.36-4.56-2.87-3.04-4.3-7.34-4.3-12.9,0-3.46.71-6.54,2.13-9.22,1.42-2.68,3.46-4.75,6.11-6.21,2.65-1.46,5.69-2.19,9.12-2.19,3.71,0,7.05.68,10,2.05l-.96,2.14c-2.95-1.37-6.01-2.05-9.18-2.05-4.49,0-8.05,1.39-10.69,4.16-2.63,2.77-3.95,6.51-3.95,11.22,0,5.13,1.25,8.98,3.75,11.57,2.5,2.59,6.18,3.88,11.02,3.88,3.14,0,5.8-.44,7.99-1.33v-11.98h-10.14v-2.24Z"/>
      <path class="cls-3" d="M748.36,215c0,4.13-1,7.36-3.01,9.68-2,2.32-4.77,3.48-8.3,3.48-2.22,0-4.18-.54-5.87-1.61-1.69-1.07-2.99-2.61-3.89-4.62-.9-2-1.35-4.32-1.35-6.94,0-4.13,1-7.35,3.01-9.66,2-2.31,4.75-3.46,8.25-3.46s6.21,1.17,8.19,3.51c1.98,2.34,2.97,5.54,2.97,9.61ZM728.36,215c0,3.48.76,6.2,2.3,8.14,1.53,1.95,3.69,2.92,6.49,2.92s4.96-.97,6.49-2.92c1.53-1.95,2.3-4.66,2.3-8.14s-.77-6.21-2.32-8.13-3.72-2.89-6.51-2.89-4.95.96-6.47,2.88-2.27,4.63-2.27,8.15Z"/>
      <path class="cls-3" d="M760.92,227.7l-9.79-25.33h2.38l6.55,17.22c.87,2.21,1.52,4.13,1.96,5.78h.14c.64-2.11,1.29-4.06,1.96-5.83l6.55-17.18h2.38l-9.79,25.33h-2.33Z"/>
      <path class="cls-3" d="M787.51,228.17c-3.68,0-6.55-1.13-8.61-3.4s-3.09-5.45-3.09-9.53.99-7.27,2.98-9.71c1.99-2.43,4.67-3.65,8.04-3.65,2.98,0,5.34,1.04,7.06,3.12s2.59,4.91,2.59,8.48v1.86h-18.25c.03,3.48.84,6.14,2.44,7.97,1.59,1.83,3.87,2.75,6.84,2.75,1.45,0,2.71-.1,3.81-.3,1.1-.2,2.48-.64,4.16-1.3v2.1c-1.43.62-2.75,1.04-3.96,1.27-1.21.23-2.55.34-4.01.34ZM786.83,203.93c-2.44,0-4.4.8-5.87,2.41s-2.34,3.93-2.59,6.96h15.66c0-2.94-.64-5.23-1.91-6.89-1.27-1.66-3.04-2.48-5.29-2.48Z"/>
      <path class="cls-3" d="M813.45,201.88c1.07,0,2.22.11,3.45.33l-.44,2.21c-1.06-.26-2.15-.4-3.29-.4-2.16,0-3.93.92-5.31,2.75-1.38,1.83-2.07,4.15-2.07,6.95v13.98h-2.31v-25.33h1.96l.23,4.57h.16c1.04-1.87,2.15-3.17,3.33-3.93,1.18-.75,2.61-1.13,4.29-1.13Z"/>
      <path class="cls-3" d="M839.71,227.7v-16.43c0-2.55-.54-4.4-1.61-5.56s-2.74-1.74-4.99-1.74c-3.03,0-5.25.77-6.65,2.29-1.41,1.53-2.11,4.01-2.11,7.45v13.98h-2.31v-25.33h1.96l.44,3.47h.14c1.65-2.64,4.58-3.96,8.79-3.96,5.75,0,8.62,3.08,8.62,9.25v16.57h-2.28Z"/>
      <path class="cls-3" d="M865.58,227.7l-.58-4.01h-.19c-1.27,1.63-2.58,2.79-3.93,3.46s-2.93,1.01-4.77,1.01c-2.49,0-4.42-.64-5.8-1.91-1.38-1.27-2.07-3.04-2.07-5.29,0-2.47,1.03-4.39,3.09-5.76,2.06-1.37,5.04-2.09,8.94-2.17l4.82-.14v-1.68c0-2.41-.49-4.23-1.47-5.45-.98-1.23-2.56-1.84-4.73-1.84-2.35,0-4.78.65-7.29,1.96l-.86-2c2.78-1.3,5.53-1.96,8.25-1.96s4.86.72,6.23,2.17,2.06,3.7,2.06,6.76v16.85h-1.7ZM856.26,226.07c2.7,0,4.84-.77,6.4-2.32s2.34-3.69,2.34-6.44v-2.49l-4.43.19c-3.56.17-6.09.73-7.61,1.67-1.52.94-2.27,2.4-2.27,4.39,0,1.58.49,2.82,1.46,3.69s2.34,1.32,4.11,1.32Z"/>
      <path class="cls-3" d="M893.15,227.7v-16.43c0-2.55-.54-4.4-1.61-5.56s-2.73-1.74-4.99-1.74c-3.03,0-5.25.77-6.65,2.29-1.41,1.53-2.11,4.01-2.11,7.45v13.98h-2.31v-25.33h1.96l.44,3.47h.14c1.65-2.64,4.58-3.96,8.79-3.96,5.75,0,8.62,3.08,8.62,9.25v16.57h-2.28Z"/>
      <path class="cls-3" d="M913.75,228.17c-3.62,0-6.46-1.14-8.51-3.43s-3.08-5.47-3.08-9.55,1.06-7.46,3.19-9.8c2.13-2.34,5.04-3.51,8.74-3.51,2.19,0,4.29.38,6.29,1.14l-.63,2.05c-2.19-.73-4.09-1.09-5.71-1.09-3.11,0-5.46.96-7.06,2.88-1.6,1.92-2.4,4.68-2.4,8.29,0,3.42.8,6.09,2.4,8.03,1.6,1.93,3.84,2.9,6.71,2.9,2.3,0,4.44-.41,6.41-1.23v2.14c-1.62.79-3.74,1.19-6.36,1.19Z"/>
      <path class="cls-3" d="M936.55,228.17c-3.68,0-6.55-1.13-8.61-3.4-2.06-2.27-3.09-5.45-3.09-9.53s.99-7.27,2.98-9.71c1.99-2.43,4.67-3.65,8.04-3.65,2.98,0,5.34,1.04,7.06,3.12,1.72,2.08,2.59,4.91,2.59,8.48v1.86h-18.25c.03,3.48.84,6.14,2.43,7.97,1.59,1.83,3.87,2.75,6.84,2.75,1.44,0,2.71-.1,3.81-.3,1.1-.2,2.48-.64,4.16-1.3v2.1c-1.43.62-2.75,1.04-3.96,1.27-1.21.23-2.55.34-4.01.34ZM935.87,203.93c-2.44,0-4.4.8-5.87,2.41-1.48,1.61-2.34,3.93-2.59,6.96h15.66c0-2.94-.64-5.23-1.91-6.89-1.27-1.66-3.04-2.48-5.29-2.48Z"/>
      <path class="cls-3" d="M384.17,274.8l-.58-4.01h-.19c-1.27,1.63-2.58,2.79-3.93,3.46s-2.93,1.01-4.77,1.01c-2.49,0-4.42-.64-5.8-1.91-1.38-1.27-2.07-3.04-2.07-5.29,0-2.47,1.03-4.39,3.09-5.76,2.06-1.37,5.04-2.09,8.94-2.17l4.82-.14v-1.68c0-2.41-.49-4.23-1.47-5.45-.98-1.23-2.56-1.84-4.73-1.84-2.35,0-4.78.65-7.29,1.96l-.86-2c2.78-1.3,5.53-1.96,8.25-1.96s4.86.72,6.23,2.17,2.06,3.7,2.06,6.76v16.85h-1.7ZM374.84,273.17c2.7,0,4.84-.77,6.4-2.32s2.34-3.69,2.34-6.44v-2.49l-4.43.19c-3.56.17-6.09.73-7.61,1.67-1.52.94-2.27,2.4-2.27,4.39,0,1.58.49,2.82,1.46,3.69s2.34,1.32,4.11,1.32Z"/>
      <path class="cls-3" d="M411.74,274.8v-16.43c0-2.55-.54-4.4-1.61-5.56s-2.73-1.74-4.99-1.74c-3.03,0-5.25.77-6.65,2.29-1.41,1.53-2.11,4.01-2.11,7.45v13.98h-2.31v-25.33h1.96l.44,3.47h.14c1.65-2.64,4.58-3.96,8.79-3.96,5.75,0,8.62,3.08,8.62,9.25v16.57h-2.28Z"/>
      <path class="cls-3" d="M431.5,248.98c1.83,0,3.42.33,4.75,1,1.34.67,2.53,1.81,3.59,3.43h.14c-.09-1.96-.14-3.88-.14-5.76v-9.11h2.28v36.26h-1.51l-.58-3.87h-.19c-1.93,2.89-4.69,4.33-8.3,4.33s-6.17-1.09-8.02-3.26c-1.85-2.17-2.77-5.34-2.77-9.51,0-4.38.92-7.73,2.75-10.04,1.83-2.32,4.5-3.47,7.99-3.47ZM431.5,251.07c-2.77,0-4.84.97-6.23,2.91s-2.08,4.76-2.08,8.46c0,7.18,2.79,10.77,8.37,10.77,2.86,0,4.96-.83,6.29-2.49,1.34-1.66,2-4.41,2-8.23v-.4c0-3.92-.66-6.73-1.97-8.45s-3.44-2.58-6.37-2.58Z"/>
      <path class="cls-3" d="M463.61,274.8v-34.07h2.38v31.83h16.24v2.24h-18.62Z"/>
      <path class="cls-3" d="M502.91,274.8l-.58-4.01h-.19c-1.27,1.63-2.58,2.79-3.93,3.46s-2.93,1.01-4.77,1.01c-2.49,0-4.42-.64-5.8-1.91-1.38-1.27-2.07-3.04-2.07-5.29,0-2.47,1.03-4.39,3.09-5.76,2.06-1.37,5.04-2.09,8.94-2.17l4.82-.14v-1.68c0-2.41-.49-4.23-1.47-5.45-.98-1.23-2.56-1.84-4.73-1.84-2.35,0-4.78.65-7.29,1.96l-.86-2c2.78-1.3,5.53-1.96,8.25-1.96s4.86.72,6.23,2.17,2.06,3.7,2.06,6.76v16.85h-1.7ZM493.58,273.17c2.7,0,4.84-.77,6.4-2.32s2.34-3.69,2.34-6.44v-2.49l-4.43.19c-3.56.17-6.09.73-7.61,1.67-1.52.94-2.27,2.4-2.27,4.39,0,1.58.49,2.82,1.46,3.69s2.34,1.32,4.11,1.32Z"/>
      <path class="cls-3" d="M530.48,274.8v-16.43c0-2.55-.54-4.4-1.61-5.56s-2.73-1.74-4.99-1.74c-3.03,0-5.25.77-6.65,2.29-1.41,1.53-2.11,4.01-2.11,7.45v13.98h-2.31v-25.33h1.96l.44,3.47h.14c1.65-2.64,4.58-3.96,8.79-3.96,5.75,0,8.62,3.08,8.62,9.25v16.57h-2.28Z"/>
      <path class="cls-3" d="M550.24,248.98c1.83,0,3.42.33,4.75,1,1.34.67,2.53,1.81,3.59,3.43h.14c-.09-1.96-.14-3.88-.14-5.76v-9.11h2.28v36.26h-1.51l-.58-3.87h-.19c-1.93,2.89-4.69,4.33-8.3,4.33s-6.17-1.09-8.02-3.26c-1.85-2.17-2.77-5.34-2.77-9.51,0-4.38.92-7.73,2.75-10.04,1.83-2.32,4.5-3.47,7.99-3.47ZM550.24,251.07c-2.77,0-4.84.97-6.23,2.91s-2.08,4.76-2.08,8.46c0,7.18,2.79,10.77,8.37,10.77,2.86,0,4.96-.83,6.29-2.49,1.34-1.66,2-4.41,2-8.23v-.4c0-3.92-.66-6.73-1.97-8.45s-3.44-2.58-6.37-2.58Z"/>
      <path class="cls-3" d="M607.41,240.73v22.05c0,3.92-1.13,6.98-3.4,9.18s-5.43,3.31-9.49,3.31-7.03-1.11-9.24-3.32c-2.21-2.21-3.32-5.3-3.32-9.26v-21.95h2.4v22.05c0,3.28.91,5.83,2.73,7.66,1.82,1.83,4.39,2.74,7.71,2.74s5.76-.9,7.55-2.69c1.79-1.79,2.68-4.28,2.68-7.47v-22.28h2.38Z"/>
      <path class="cls-3" d="M631.81,268.2c0,2.27-.86,4.01-2.59,5.23s-4.17,1.83-7.34,1.83c-3.39,0-6.08-.52-8.06-1.56v-2.49c2.55,1.27,5.24,1.91,8.06,1.91,2.5,0,4.4-.42,5.7-1.25,1.3-.83,1.95-1.94,1.95-3.32,0-1.27-.52-2.35-1.55-3.22-1.03-.87-2.73-1.72-5.09-2.56-2.53-.92-4.31-1.71-5.34-2.37-1.03-.66-1.8-1.41-2.32-2.24-.52-.83-.78-1.85-.78-3.04,0-1.9.8-3.39,2.39-4.5,1.59-1.1,3.82-1.65,6.68-1.65s5.33.51,7.78,1.54l-.86,2.1c-2.49-1.03-4.79-1.54-6.92-1.54s-3.71.34-4.92,1.03-1.82,1.63-1.82,2.84c0,1.32.47,2.38,1.41,3.17.94.79,2.78,1.68,5.51,2.66,2.28.82,3.95,1.57,4.99,2.23,1.04.66,1.82,1.41,2.34,2.25.52.84.78,1.83.78,2.96Z"/>
      <path class="cls-3" d="M648.56,275.26c-3.68,0-6.55-1.13-8.61-3.4-2.06-2.27-3.09-5.45-3.09-9.53s.99-7.27,2.98-9.71c1.99-2.43,4.67-3.65,8.04-3.65,2.98,0,5.34,1.04,7.06,3.12,1.72,2.08,2.59,4.91,2.59,8.48v1.86h-18.25c.03,3.48.84,6.14,2.43,7.97,1.59,1.83,3.87,2.75,6.84,2.75,1.44,0,2.71-.1,3.81-.3,1.1-.2,2.48-.64,4.16-1.3v2.1c-1.43.62-2.75,1.04-3.96,1.27-1.21.23-2.55.34-4.01.34ZM647.89,251.03c-2.44,0-4.4.8-5.87,2.41-1.48,1.61-2.34,3.93-2.59,6.96h15.66c0-2.94-.64-5.23-1.91-6.89-1.27-1.66-3.04-2.48-5.29-2.48Z"/>
      <path class="cls-3" d="M692.49,274.8l-12.7-31.46h-.19c.12,1.93.19,3.9.19,5.92v25.54h-2.28v-34.07h3.68l12.07,29.97h.14l12.07-29.97h3.59v34.07h-2.4v-25.82c0-1.8.09-3.67.28-5.59h-.19l-12.75,31.42h-1.51Z"/>
      <path class="cls-3" d="M733.49,274.8l-.58-4.01h-.19c-1.27,1.63-2.58,2.79-3.93,3.46s-2.93,1.01-4.77,1.01c-2.49,0-4.42-.64-5.8-1.91-1.38-1.27-2.07-3.04-2.07-5.29,0-2.47,1.03-4.39,3.09-5.76,2.06-1.37,5.04-2.09,8.94-2.17l4.82-.14v-1.68c0-2.41-.49-4.23-1.47-5.45-.98-1.23-2.56-1.84-4.73-1.84-2.35,0-4.78.65-7.29,1.96l-.86-2c2.78-1.3,5.53-1.96,8.25-1.96s4.86.72,6.23,2.17,2.06,3.7,2.06,6.76v16.85h-1.7ZM724.17,273.17c2.7,0,4.84-.77,6.4-2.32s2.34-3.69,2.34-6.44v-2.49l-4.43.19c-3.56.17-6.09.73-7.61,1.67-1.51.94-2.27,2.4-2.27,4.39,0,1.58.49,2.82,1.46,3.69.97.88,2.34,1.32,4.11,1.32Z"/>
      <path class="cls-3" d="M761.06,274.8v-16.43c0-2.55-.54-4.4-1.61-5.56s-2.74-1.74-4.99-1.74c-3.03,0-5.25.77-6.65,2.29-1.41,1.53-2.11,4.01-2.11,7.45v13.98h-2.31v-25.33h1.96l.44,3.47h.14c1.65-2.64,4.58-3.96,8.79-3.96,5.75,0,8.62,3.08,8.62,9.25v16.57h-2.28Z"/>
      <path class="cls-3" d="M786.93,274.8l-.58-4.01h-.19c-1.27,1.63-2.58,2.79-3.93,3.46s-2.93,1.01-4.77,1.01c-2.49,0-4.42-.64-5.8-1.91-1.38-1.27-2.07-3.04-2.07-5.29,0-2.47,1.03-4.39,3.09-5.76,2.06-1.37,5.04-2.09,8.94-2.17l4.82-.14v-1.68c0-2.41-.49-4.23-1.47-5.45-.98-1.23-2.56-1.84-4.73-1.84-2.35,0-4.78.65-7.29,1.96l-.86-2c2.78-1.3,5.53-1.96,8.25-1.96s4.86.72,6.23,2.17,2.06,3.7,2.06,6.76v16.85h-1.7ZM777.6,273.17c2.7,0,4.84-.77,6.4-2.32s2.34-3.69,2.34-6.44v-2.49l-4.43.19c-3.56.17-6.09.73-7.61,1.67-1.52.94-2.27,2.4-2.27,4.39,0,1.58.49,2.82,1.46,3.69s2.34,1.32,4.11,1.32Z"/>
      <path class="cls-3" d="M816.59,249.47v1.61l-5.24.33c1.4,1.74,2.1,3.65,2.1,5.73,0,2.44-.81,4.42-2.44,5.93-1.62,1.51-3.8,2.27-6.54,2.27-1.15,0-1.96-.05-2.42-.14-.92.48-1.62,1.05-2.1,1.7s-.72,1.34-.72,2.07c0,.81.31,1.4.92,1.77.61.37,1.64.56,3.09.56h4.43c2.75,0,4.85.56,6.32,1.67,1.46,1.11,2.19,2.75,2.19,4.93,0,2.67-1.08,4.73-3.25,6.19s-5.25,2.18-9.26,2.18c-3.19,0-5.65-.61-7.4-1.84s-2.62-2.94-2.62-5.13c0-1.74.54-3.19,1.62-4.33,1.08-1.15,2.54-1.93,4.39-2.35-.76-.33-1.37-.79-1.83-1.39-.46-.6-.69-1.29-.69-2.06,0-1.69,1.08-3.19,3.24-4.47-1.48-.61-2.63-1.56-3.45-2.86-.82-1.3-1.24-2.79-1.24-4.46,0-2.53.8-4.56,2.41-6.09,1.61-1.53,3.78-2.3,6.51-2.3,1.66,0,2.95.16,3.87.49h8.11ZM796.09,279.09c0,3.48,2.59,5.22,7.76,5.22,6.65,0,9.97-2.12,9.97-6.36,0-1.52-.52-2.63-1.56-3.31s-2.73-1.03-5.06-1.03h-4.15c-4.65,0-6.97,1.83-6.97,5.48ZM798.02,257.37c0,1.96.59,3.48,1.78,4.56s2.78,1.62,4.77,1.62c2.11,0,3.73-.54,4.86-1.61,1.13-1.07,1.69-2.63,1.69-4.66,0-2.16-.58-3.78-1.74-4.86-1.16-1.08-2.78-1.62-4.86-1.62s-3.61.58-4.77,1.74-1.74,2.77-1.74,4.84Z"/>
      <path class="cls-3" d="M832.02,275.26c-3.68,0-6.55-1.13-8.61-3.4s-3.09-5.45-3.09-9.53.99-7.27,2.98-9.71c1.99-2.43,4.67-3.65,8.04-3.65,2.98,0,5.34,1.04,7.06,3.12s2.59,4.91,2.59,8.48v1.86h-18.25c.03,3.48.84,6.14,2.44,7.97,1.59,1.83,3.87,2.75,6.84,2.75,1.45,0,2.71-.1,3.81-.3,1.1-.2,2.48-.64,4.16-1.3v2.1c-1.43.62-2.75,1.04-3.96,1.27-1.21.23-2.55.34-4.01.34ZM831.35,251.03c-2.44,0-4.4.8-5.87,2.41s-2.34,3.93-2.59,6.96h15.66c0-2.94-.64-5.23-1.91-6.89-1.27-1.66-3.04-2.48-5.29-2.48Z"/>
      <path class="cls-3" d="M879.63,274.8v-16.62c0-2.47-.48-4.27-1.44-5.41-.96-1.13-2.44-1.7-4.43-1.7-2.59,0-4.51.71-5.76,2.14-1.24,1.43-1.86,3.67-1.86,6.74v14.85h-2.35v-17.32c0-4.27-1.96-6.41-5.87-6.41-2.66,0-4.59.77-5.8,2.32-1.21,1.55-1.82,4.02-1.82,7.42v13.98h-2.31v-25.33h1.91l.49,3.47h.14c.7-1.26,1.69-2.23,2.98-2.92,1.29-.69,2.71-1.04,4.26-1.04,3.99,0,6.56,1.5,7.69,4.5h.09c.82-1.45,1.93-2.56,3.32-3.33,1.39-.78,2.97-1.17,4.74-1.17,2.77,0,4.84.74,6.22,2.21,1.38,1.48,2.07,3.82,2.07,7.04v16.57h-2.28Z"/>
      <path class="cls-3" d="M900.35,275.26c-3.68,0-6.55-1.13-8.61-3.4-2.06-2.27-3.09-5.45-3.09-9.53s.99-7.27,2.98-9.71c1.99-2.43,4.67-3.65,8.04-3.65,2.98,0,5.34,1.04,7.06,3.12,1.72,2.08,2.59,4.91,2.59,8.48v1.86h-18.25c.03,3.48.84,6.14,2.43,7.97,1.59,1.83,3.87,2.75,6.84,2.75,1.44,0,2.71-.1,3.81-.3,1.1-.2,2.48-.64,4.16-1.3v2.1c-1.43.62-2.75,1.04-3.96,1.27-1.21.23-2.55.34-4.01.34ZM899.68,251.03c-2.44,0-4.4.8-5.87,2.41-1.48,1.61-2.34,3.93-2.59,6.96h15.66c0-2.94-.64-5.23-1.91-6.89-1.27-1.66-3.04-2.48-5.29-2.48Z"/>
      <path class="cls-3" d="M933.98,274.8v-16.43c0-2.55-.54-4.4-1.61-5.56s-2.73-1.74-4.99-1.74c-3.03,0-5.25.77-6.65,2.29-1.41,1.53-2.11,4.01-2.11,7.45v13.98h-2.31v-25.33h1.96l.44,3.47h.14c1.65-2.64,4.58-3.96,8.79-3.96,5.75,0,8.62,3.08,8.62,9.25v16.57h-2.28Z"/>
      <path class="cls-3" d="M951.16,273.21c1.46,0,2.73-.12,3.82-.37v1.87c-1.12.37-2.41.56-3.87.56-2.24,0-3.89-.6-4.95-1.79s-1.6-3.08-1.6-5.64v-16.36h-3.75v-1.35l3.75-1.05,1.17-5.73h1.19v6.13h7.43v2h-7.43v16.03c0,1.94.34,3.38,1.03,4.31.68.93,1.76,1.4,3.22,1.4Z"/>
      <path class="cls-3" d="M959.99,272.98c0-1.52.62-2.28,1.86-2.28s1.91.76,1.91,2.28-.64,2.28-1.91,2.28-1.86-.76-1.86-2.28Z"/>
    </g>
    <rect class="cls-3" x="373.14" y="170.97" width="583.71" height="3"/>
  </g>
</svg>